<svg xmlns="http://www.w3.org/2000/svg" xmlns:xlink="http://www.w3.org/1999/xlink" width="1080" zoomAndPan="magnify" viewBox="0 0 810 809.999993" height="1080" preserveAspectRatio="xMidYMid meet" version="1.0"><defs><g/><clipPath id="6a86ff07cb"><path d="M 44.269531 44.269531 L 765.730469 44.269531 L 765.730469 765.730469 L 44.269531 765.730469 Z M 44.269531 44.269531 " clip-rule="nonzero"/></clipPath><clipPath id="39259901f9"><path d="M 119.269531 44.269531 L 690.730469 44.269531 C 732.152344 44.269531 765.730469 77.847656 765.730469 119.269531 L 765.730469 690.730469 C 765.730469 732.152344 732.152344 765.730469 690.730469 765.730469 L 119.269531 765.730469 C 77.847656 765.730469 44.269531 732.152344 44.269531 690.730469 L 44.269531 119.269531 C 44.269531 77.847656 77.847656 44.269531 119.269531 44.269531 Z M 119.269531 44.269531 " clip-rule="nonzero"/></clipPath><clipPath id="7963f29642"><path d="M 180 180.488281 L 630 180.488281 L 630 629.738281 L 180 629.738281 Z M 180 180.488281 " clip-rule="nonzero"/></clipPath><clipPath id="2e5f273b95"><path d="M 118.539062 208 L 406 208 L 406 367 L 118.539062 367 Z M 118.539062 208 " clip-rule="nonzero"/></clipPath><clipPath id="5e434f59ea"><path d="M 404 442 L 691.539062 442 L 691.539062 601 L 404 601 Z M 404 442 " clip-rule="nonzero"/></clipPath></defs><g clip-path="url(#6a86ff07cb)"><g clip-path="url(#39259901f9)"><path fill="#1b1b1b" d="M 44.269531 44.269531 L 765.730469 44.269531 L 765.730469 765.730469 L 44.269531 765.730469 Z M 44.269531 44.269531 " fill-opacity="1" fill-rule="nonzero"/></g></g><g fill="#ffffff" fill-opacity="1"><g transform="translate(171.392572, 501.374995)"><g><path d="M 155.15625 0 L 146.75 -28.125 L 76.859375 -28.125 L 68.4375 0 L 2.90625 0 L 75.6875 -199.53125 L 150.234375 -199.53125 L 223.015625 0 Z M 90.1875 -72.796875 L 133.40625 -72.796875 L 112.53125 -143.84375 L 111.359375 -143.84375 Z M 90.1875 -72.796875 "/></g></g></g><g fill="#ffffff" fill-opacity="1"><g transform="translate(397.019951, 501.374995)"><g><path d="M 121.8125 -203.015625 C 140.945312 -203.015625 158.148438 -200.113281 173.421875 -194.3125 C 188.703125 -188.507812 200.835938 -179.953125 209.828125 -168.640625 C 218.816406 -157.328125 223.3125 -143.550781 223.3125 -127.3125 L 162.125 -127.3125 C 162.125 -135.625 158.445312 -142.34375 151.09375 -147.46875 C 143.75 -152.59375 134.859375 -155.15625 124.421875 -155.15625 C 109.335938 -155.15625 97.925781 -151.144531 90.1875 -143.125 C 82.457031 -135.101562 78.59375 -123.742188 78.59375 -109.046875 L 78.59375 -90.484375 C 78.59375 -75.785156 82.457031 -64.425781 90.1875 -56.40625 C 97.925781 -48.382812 109.335938 -44.375 124.421875 -44.375 C 134.859375 -44.375 143.75 -46.835938 151.09375 -51.765625 C 158.445312 -56.691406 162.125 -63.023438 162.125 -70.765625 L 116.875 -70.765625 L 116.875 -111.359375 L 223.3125 -111.359375 L 223.3125 0 L 190.25 0 L 183.875 -19.71875 C 165.695312 -4.25 141.914062 3.484375 112.53125 3.484375 C 79.46875 3.484375 54.617188 -5.164062 37.984375 -22.46875 C 21.359375 -39.78125 13.046875 -65.546875 13.046875 -99.765625 C 13.046875 -133.597656 22.472656 -159.265625 41.328125 -176.765625 C 60.179688 -194.265625 87.007812 -203.015625 121.8125 -203.015625 Z M 121.8125 -203.015625 "/></g></g></g><g clip-path="url(#7963f29642)"><path fill="#ffffff" d="M 195.917969 180.484375 L 614.265625 180.484375 C 618.441406 180.484375 622.242188 182.199219 624.992188 184.949219 C 627.730469 187.691406 629.445312 191.492188 629.445312 195.671875 L 629.445312 614.175781 C 629.445312 618.351562 627.730469 622.144531 624.992188 624.894531 C 622.242188 627.648438 618.441406 629.359375 614.265625 629.359375 L 195.917969 629.359375 C 191.753906 629.359375 187.953125 627.648438 185.210938 624.894531 C 182.449219 622.144531 180.75 618.339844 180.75 614.175781 L 180.75 195.671875 C 180.75 191.492188 182.449219 187.703125 185.203125 184.949219 C 187.953125 182.199219 191.753906 180.484375 195.917969 180.484375 Z M 614.265625 182.03125 L 195.917969 182.03125 C 192.171875 182.03125 188.769531 183.566406 186.296875 186.042969 C 183.832031 188.507812 182.296875 191.921875 182.296875 195.671875 L 182.296875 614.175781 C 182.296875 617.921875 183.832031 621.335938 186.296875 623.800781 C 188.769531 626.277344 192.171875 627.8125 195.917969 627.8125 L 614.265625 627.8125 C 618.019531 627.8125 621.421875 626.277344 623.898438 623.800781 C 626.363281 621.324219 627.898438 617.921875 627.898438 614.175781 L 627.898438 195.671875 C 627.898438 191.921875 626.363281 188.507812 623.898438 186.042969 C 621.421875 183.566406 618.019531 182.03125 614.265625 182.03125 " fill-opacity="1" fill-rule="nonzero"/></g><g clip-path="url(#2e5f273b95)"><path fill="#ffffff" d="M 182.804688 366.179688 C 162.453125 362.179688 146.226562 356.652344 135.199219 349.746094 C 124.40625 342.972656 118.527344 334.859375 118.527344 325.53125 C 118.527344 303.835938 150.699219 279.863281 202.710938 258.65625 C 254.484375 237.535156 326.003906 219.046875 404.996094 208.191406 L 405.195312 209.71875 C 326.347656 220.546875 254.96875 239.003906 203.296875 260.082031 C 151.882812 281.058594 120.074219 304.53125 120.074219 325.53125 C 120.074219 334.285156 125.699219 341.964844 136.015625 348.429688 C 146.878906 355.238281 162.929688 360.699219 183.101562 364.65625 L 182.804688 366.179688 " fill-opacity="1" fill-rule="nonzero"/></g><g clip-path="url(#5e434f59ea)"><path fill="#ffffff" d="M 629.078125 442.484375 C 648.921875 446.503906 664.707031 452.007812 675.445312 458.863281 C 685.953125 465.570312 691.664062 473.582031 691.664062 482.789062 C 691.664062 504.472656 659.496094 528.457031 607.480469 549.664062 C 555.710938 570.785156 484.1875 589.265625 405.195312 600.117188 L 404.996094 598.589844 C 483.84375 587.761719 555.226562 569.304688 606.894531 548.226562 C 658.3125 527.261719 690.117188 503.789062 690.117188 482.789062 C 690.117188 474.15625 684.660156 466.574219 674.617188 460.15625 C 664.046875 453.414062 648.425781 447.976562 628.78125 443.996094 L 629.078125 442.484375 " fill-opacity="1" fill-rule="nonzero"/></g><path fill="#ffffff" d="M 404.910156 185.425781 L 405.273438 185.425781 C 405.273438 207.199219 408.808594 208.777344 428.617188 208.777344 L 428.617188 209.140625 C 408.808594 209.140625 405.273438 210.722656 405.273438 232.496094 L 404.910156 232.496094 C 404.910156 210.722656 401.386719 209.140625 381.566406 209.140625 L 381.566406 208.777344 C 401.386719 208.777344 404.910156 207.199219 404.910156 185.425781 " fill-opacity="1" fill-rule="evenodd"/><path fill="#ffffff" d="M 404.910156 575.679688 L 405.273438 575.679688 C 405.273438 597.453125 408.808594 599.035156 428.617188 599.035156 L 428.617188 599.398438 C 408.808594 599.398438 405.273438 600.988281 405.273438 622.75 L 404.910156 622.75 C 404.910156 600.988281 401.386719 599.398438 381.566406 599.398438 L 381.566406 599.035156 C 401.386719 599.035156 404.910156 597.453125 404.910156 575.679688 " fill-opacity="1" fill-rule="evenodd"/></svg>